<?xml version="1.0" encoding="UTF-8" standalone="no"?>
<svg
   xmlns:dc="http://purl.org/dc/elements/1.1/"
   xmlns:cc="http://creativecommons.org/ns#"
   xmlns:rdf="http://www.w3.org/1999/02/22-rdf-syntax-ns#"
   xmlns:svg="http://www.w3.org/2000/svg"
   xmlns="http://www.w3.org/2000/svg"
   viewBox="0 0 561.08002 520.12"
   height="520.12"
   width="561.08002"
   xml:space="preserve"
   id="svg2"
   version="1.1"><metadata
     id="metadata8"><rdf:RDF><cc:Work
         rdf:about=""><dc:format>image/svg+xml</dc:format><dc:type
           rdf:resource="http://purl.org/dc/dcmitype/StillImage" /></cc:Work></rdf:RDF></metadata><defs
     id="defs6" /><g
     transform="matrix(1.3333333,0,0,-1.3333333,0,520.12)"
     id="g10"><g
       transform="scale(0.1)"
       id="g12"><path
         id="path14"
         style="fill:#e7e8e5;fill-opacity:1;fill-rule:nonzero;stroke:none"
         d="M 57.082,3898.45 C 26.9844,3898.45 2.5,3873.96 2.5,3843.88 V 57.082 C 2.5,26.9805 26.9844,2.5 57.082,2.5 H 1988.07 c 30.08,0 54.57,24.4805 54.57,54.582 V 3843.88 c 0,30.08 -24.49,54.57 -54.57,54.57 H 57.082 M 1988.07,0 H 57.082 C 25.6055,0 0,25.6016 0,57.082 V 3843.88 c 0,31.46 25.6055,57.07 57.082,57.07 H 1988.07 c 31.46,0 57.07,-25.61 57.07,-57.07 V 57.082 C 2045.14,25.6016 2019.53,0 1988.07,0" /><path
         id="path16"
         style="fill:#e7e8e5;fill-opacity:1;fill-rule:nonzero;stroke:none"
         d="m 2220.05,3898.45 c -30.09,0 -54.57,-24.49 -54.57,-54.57 V 57.082 c 0,-30.1015 24.48,-54.582 54.57,-54.582 h 1930.99 c 30.09,0 54.57,24.4805 54.57,54.582 V 3843.88 c 0,30.08 -24.48,54.57 -54.57,54.57 H 2220.05 M 4151.04,0 H 2220.05 c -31.47,0 -57.07,25.6016 -57.07,57.082 V 3843.88 c 0,31.46 25.6,57.07 57.07,57.07 h 1930.99 c 31.47,0 57.08,-25.61 57.08,-57.07 V 57.082 C 4208.12,25.6016 4182.51,0 4151.04,0" /><path
         id="path18"
         style="fill:#e7e8e5;fill-opacity:1;fill-rule:nonzero;stroke:none"
         d="m 734.598,2768.01 16.168,-32.77 36.156,-5.25 -26.16,-25.51 6.176,-36.01 -32.34,17.01 -32.34,-17.01 6.176,36.01 -26.164,25.51 36.16,5.25 16.168,32.77" /><path
         id="path20"
         style="fill:#f3f2f1;fill-opacity:1;fill-rule:nonzero;stroke:none"
         d="m 3971.1,1225.64 16.18,-32.76 36.15,-5.26 -26.16,-25.49 6.18,-36.02 -32.35,17 -32.34,-17 6.18,36.02 -26.16,25.49 36.15,5.26 16.17,32.76" /><path
         id="path22"
         style="fill:#f3f2f1;fill-opacity:1;fill-rule:nonzero;stroke:none"
         d="m 3330.05,274.82 16.17,-32.761 36.15,-5.258 -26.16,-25.5 6.18,-36.012 -32.34,17 -32.34,-17 6.17,36.012 -26.16,25.5 36.16,5.258 16.17,32.761" /><path
         id="path24"
         style="fill:#e7e8e5;fill-opacity:1;fill-rule:nonzero;stroke:none"
         d="m 1863.5,3348.93 6.01,-12.16 13.42,-1.95 c 3.35,-0.49 4.69,-4.6 2.26,-6.96 l -9.71,-9.47 2.29,-13.36 c 0.58,-3.34 -2.93,-5.88 -5.92,-4.31 l -12.01,6.31 -12,-6.31 c -3,-1.57 -6.5,0.97 -5.93,4.31 l 2.29,13.36 -9.71,9.47 c -2.42,2.36 -1.08,6.47 2.27,6.96 l 13.42,1.95 6,12.16 c 1.5,3.04 5.82,3.04 7.32,0" /><path
         id="path26"
         style="fill:#f3f2f1;fill-opacity:1;fill-rule:nonzero;stroke:none"
         d="m 211.824,430.398 6.004,-12.16 13.422,-1.949 c 3.352,-0.488 4.684,-4.598 2.266,-6.969 l -9.715,-9.468 2.293,-13.364 c 0.57,-3.34 -2.93,-5.886 -5.926,-4.297 l -12.008,6.297 -12.004,-6.297 c -2.996,-1.589 -6.496,0.957 -5.926,4.297 l 2.293,13.364 -9.71,9.468 c -2.422,2.371 -1.086,6.481 2.261,6.969 l 13.426,1.949 6,12.16 c 1.5,3.043 5.828,3.043 7.324,0" /><path
         id="path28"
         style="fill:#e7e8e5;fill-opacity:1;fill-rule:nonzero;stroke:none"
         d="m 481.605,3477.47 6.004,-12.16 13.422,-1.95 c 3.348,-0.49 4.684,-4.61 2.262,-6.97 l -9.711,-9.47 2.293,-13.37 c 0.57,-3.33 -2.93,-5.88 -5.926,-4.3 l -12.008,6.31 -12.003,-6.31 c -2.997,-1.58 -6.497,0.97 -5.926,4.3 l 2.293,13.37 -9.711,9.47 c -2.426,2.36 -1.086,6.48 2.261,6.97 l 13.422,1.95 6.004,12.16 c 1.496,3.03 5.828,3.03 7.324,0" /><path
         id="path30"
         style="fill:#e7e8e5;fill-opacity:1;fill-rule:nonzero;stroke:none"
         d="m 465.363,1067.28 c 0,-7.32 -5.941,-13.27 -13.273,-13.27 -7.328,0 -13.27,5.95 -13.27,13.27 0,7.34 5.942,13.27 13.27,13.27 7.332,0 13.273,-5.93 13.273,-13.27" /><path
         id="path32"
         style="fill:#e7e8e5;fill-opacity:1;fill-rule:nonzero;stroke:none"
         d="m 2360.77,2731.53 c 0,-7.32 -5.94,-13.27 -13.27,-13.27 -7.33,0 -13.28,5.95 -13.28,13.27 0,7.33 5.95,13.28 13.28,13.28 7.33,0 13.27,-5.95 13.27,-13.28" /><path
         id="path34"
         style="fill:#f3f2f1;fill-opacity:1;fill-rule:nonzero;stroke:none"
         d="m 1671.13,3466.47 c 0,-7.33 -5.95,-13.27 -13.28,-13.27 -7.33,0 -13.27,5.94 -13.27,13.27 0,7.33 5.94,13.27 13.27,13.27 7.33,0 13.28,-5.94 13.28,-13.27" /><path
         id="path36"
         style="fill:#ededeb;fill-opacity:1;fill-rule:nonzero;stroke:none"
         d="m 1748.96,296.711 c 0,40.57 -32.9,73.469 -73.48,73.469 -40.58,0 -73.47,-32.899 -73.47,-73.469 0,-40.59 32.89,-73.481 73.47,-73.481 40.58,0 73.48,32.891 73.48,73.481" /><path
         id="path38"
         style="fill:#e2e2e0;fill-opacity:1;fill-rule:nonzero;stroke:none"
         d="m 1650.03,339.582 c -15.6,0 -30.1,-5 -41.9,-13.613 -3.9,-8.989 -6.1,-18.887 -6.1,-29.289 0,-40.602 32.9,-73.399 73.5,-73.399 13.7,0 26.6,3.801 37.6,10.399 v 0.101 c 5.5,10.188 8.6,21.789 8.6,34.199 0,39.5 -32.1,71.602 -71.7,71.602" /><path
         id="path40"
         style="fill:#406fbf;fill-opacity:1;fill-rule:nonzero;stroke:none"
         d="m 1080.86,1833.2 v 378.37 L 759.305,1833.2 h 321.555 m 0,-259.17 H 472.309 v 274.75 l 608.551,723.37 h 291.15 V 1833.2 h 150.91 V 1574.03 H 1372.01 V 1349.3 h -291.15 v 224.73" /><path
         id="path42"
         style="fill:#406fbf;fill-opacity:1;fill-rule:nonzero;stroke:none"
         d="m 1958.41,1954.58 c 0,-153.1 13.53,-257.67 40.6,-313.71 27.07,-56.05 66.29,-84.07 117.68,-84.07 33.9,0 63.29,11.89 88.17,35.68 24.88,23.79 43.19,61.37 54.96,112.77 11.75,51.39 17.63,131.5 17.63,240.3 0,159.65 -13.54,266.96 -40.6,321.91 -27.07,54.95 -67.66,82.43 -121.79,82.43 -55.23,0 -95.14,-28.04 -119.75,-84.07 -24.6,-56.06 -36.9,-159.8 -36.9,-311.24 m -331.34,0.82 c 0,228.53 41.13,388.46 123.43,479.77 82.29,91.32 207.63,136.98 376.04,136.98 80.92,0 147.35,-9.99 199.3,-29.94 51.94,-19.97 94.32,-45.92 127.12,-77.92 32.8,-31.98 58.64,-65.61 77.5,-100.87 18.87,-35.27 34.04,-76.41 45.52,-123.44 22.41,-89.68 33.62,-183.17 33.62,-280.49 0,-218.15 -36.9,-377.81 -110.71,-478.97 -73.82,-101.15 -200.94,-151.71 -381.37,-151.71 -101.16,0 -182.9,16.13 -245.22,48.39 -62.34,32.25 -113.47,79.55 -153.37,141.88 -28.99,44.29 -51.54,104.84 -67.66,181.66 -16.14,76.82 -24.2,161.7 -24.2,254.66" /><path
         id="path44"
         style="fill:#406fbf;fill-opacity:1;fill-rule:nonzero;stroke:none"
         d="m 3321.49,1833.2 v 378.37 L 2999.94,1833.2 h 321.55 m 0,-259.17 h -608.55 v 274.75 l 608.55,723.37 h 291.16 V 1833.2 h 150.9 v -259.17 h -150.9 V 1349.3 h -291.16 v 224.73" /><path
         id="path46"
         style="fill:#b8d2ef;fill-opacity:1;fill-rule:nonzero;stroke:none"
         d="m 1594.92,2975.64 c -10.3,0 -18.65,8.35 -18.65,18.66 0,10.3 8.35,18.65 18.65,18.65 10.3,0 18.65,-8.35 18.65,-18.65 0,-10.31 -8.35,-18.66 -18.65,-18.66" /><path
         id="path48"
         style="fill:#b8d2ef;fill-opacity:1;fill-rule:nonzero;stroke:none"
         d="m 333.715,2275.95 c -7.305,0 -13.231,5.93 -13.231,13.24 0,7.3 5.926,13.23 13.231,13.23 7.305,0 13.23,-5.93 13.23,-13.23 0,-7.31 -5.925,-13.24 -13.23,-13.24" /><path
         id="path50"
         style="fill:#b8d2ef;fill-opacity:1;fill-rule:nonzero;stroke:none"
         d="m 2514.6,348.211 c -10.46,0 -18.94,8.48 -18.94,18.937 0,10.454 8.48,18.93 18.94,18.93 10.45,0 18.93,-8.476 18.93,-18.93 0,-10.457 -8.48,-18.937 -18.93,-18.937" /><path
         id="path52"
         style="fill:#b8d2ef;fill-opacity:1;fill-rule:nonzero;stroke:none"
         d="m 2969.04,1117.24 c -7.31,0 -13.23,5.93 -13.23,13.24 0,7.3 5.92,13.23 13.23,13.23 7.31,0 13.23,-5.93 13.23,-13.23 0,-7.31 -5.92,-13.24 -13.23,-13.24" /><path
         id="path54"
         style="fill:#b8d2ef;fill-opacity:1;fill-rule:nonzero;stroke:none"
         d="m 3832.56,3481.06 c -7.31,0 -13.23,5.92 -13.23,13.23 0,7.31 5.92,13.23 13.23,13.23 7.3,0 13.23,-5.92 13.23,-13.23 0,-7.31 -5.93,-13.23 -13.23,-13.23" /><path
         id="path56"
         style="fill:#b8d2ef;fill-opacity:1;fill-rule:nonzero;stroke:none"
         d="m 1318.37,3747.61 c -7.31,0 -13.23,5.93 -13.23,13.24 0,7.3 5.92,13.23 13.23,13.23 7.3,0 13.23,-5.93 13.23,-13.23 0,-7.31 -5.93,-13.24 -13.23,-13.24" /><path
         id="path58"
         style="fill:#b8d2ef;fill-opacity:1;fill-rule:nonzero;stroke:none"
         d="m 2381.01,3067.82 c -7.3,0 -13.23,5.92 -13.23,13.22 0,7.32 5.93,13.23 13.23,13.23 7.31,0 13.23,-5.91 13.23,-13.23 0,-7.3 -5.92,-13.22 -13.23,-13.22" /><path
         id="path60"
         style="fill:#406fbf;fill-opacity:1;fill-rule:nonzero;stroke:none"
         d="m 1235.49,3286.88 c 0,-121.01 -98.09,-219.11 -219.1,-219.11 -121.007,0 -219.101,98.1 -219.101,219.11 0,121 98.094,219.09 219.101,219.09 121.01,0 219.1,-98.09 219.1,-219.09" /><path
         id="path62"
         style="fill:#b8d2ef;fill-opacity:1;fill-rule:nonzero;stroke:none"
         d="m 1016.39,3067.77 c -121.007,0 -219.101,98.1 -219.101,219.11 0,121 98.094,219.09 219.101,219.09 121.01,0 219.1,-98.09 219.1,-219.09 0,-90.18 -54.47,-167.63 -132.31,-201.25 v 0.09 c 35.3,38.94 56.85,90.58 56.85,147.32 0,121.07 -98.07,219.14 -219.147,219.14 -30.711,0 -59.863,-6.35 -86.406,-17.7 -35.504,-38.94 -57.157,-90.78 -57.157,-147.63 0,-120.96 98.067,-219.03 219.04,-219.03 28.38,0 55.52,5.38 80.45,15.18 -24.89,-9.83 -52.03,-15.23 -80.42,-15.23 m 118.28,366.53 c -11.07,0 -20.03,-8.96 -20.03,-20.03 0,-11.06 8.96,-20.02 20.03,-20.02 11.06,0 20.02,8.96 20.02,20.02 0,11.07 -8.96,20.03 -20.02,20.03" /><path
         id="path64"
         style="fill:#cfe0f4;fill-opacity:1;fill-rule:nonzero;stroke:none"
         d="m 1096.81,3083 c 2.15,0.85 4.26,1.72 6.37,2.63 v -0.01 c -2.1,-0.9 -4.23,-1.78 -6.37,-2.62" /><path
         id="path66"
         style="fill:#9abee8;fill-opacity:1;fill-rule:nonzero;stroke:none"
         d="m 1016.36,3067.82 c -120.973,0 -219.04,98.07 -219.04,219.03 0,56.85 21.653,108.69 57.157,147.63 26.543,11.35 55.695,17.7 86.406,17.7 121.077,0 219.147,-98.07 219.147,-219.14 0,-56.74 -21.55,-108.38 -56.85,-147.32 v -0.09 c -2.11,-0.91 -4.22,-1.78 -6.37,-2.63 -24.93,-9.8 -52.07,-15.18 -80.45,-15.18 m -49.696,154 c -24.195,0 -43.809,-19.61 -43.809,-43.8 0,-24.2 19.614,-43.81 43.809,-43.81 24.199,0 43.816,19.61 43.816,43.81 0,24.19 -19.617,43.8 -43.816,43.8 m 115.196,82.43 c -18.1,0 -32.78,-14.68 -32.78,-32.79 0,-18.09 14.68,-32.77 32.78,-32.77 18.1,0 32.78,14.68 32.78,32.77 0,18.11 -14.68,32.79 -32.78,32.79 m -182.79,110.02 c -11.058,0 -20.027,-8.96 -20.027,-20.02 0,-11.07 8.969,-20.04 20.027,-20.04 11.063,0 20.032,8.97 20.032,20.04 0,11.06 -8.969,20.02 -20.032,20.02" /><path
         id="path68"
         style="fill:#85ade0;fill-opacity:1;fill-rule:nonzero;stroke:none"
         d="m 899.07,3374.21 c -11.058,0 -20.027,8.97 -20.027,20.04 0,11.06 8.969,20.02 20.027,20.02 11.063,0 20.032,-8.96 20.032,-20.02 0,-11.07 -8.969,-20.04 -20.032,-20.04" /><path
         id="path70"
         style="fill:#9abee8;fill-opacity:1;fill-rule:nonzero;stroke:none"
         d="m 1134.67,3394.25 c -11.07,0 -20.03,8.96 -20.03,20.02 0,11.07 8.96,20.03 20.03,20.03 11.06,0 20.02,-8.96 20.02,-20.03 0,-11.06 -8.96,-20.02 -20.02,-20.02" /><path
         id="path72"
         style="fill:#85ade0;fill-opacity:1;fill-rule:nonzero;stroke:none"
         d="m 1081.86,3238.69 c -18.1,0 -32.78,14.68 -32.78,32.77 0,18.11 14.68,32.79 32.78,32.79 18.1,0 32.78,-14.68 32.78,-32.79 0,-18.09 -14.68,-32.77 -32.78,-32.77" /><path
         id="path74"
         style="fill:#85ade0;fill-opacity:1;fill-rule:nonzero;stroke:none"
         d="m 966.664,3134.21 c -24.195,0 -43.809,19.61 -43.809,43.81 0,24.19 19.614,43.8 43.809,43.8 24.199,0 43.816,-19.61 43.816,-43.8 0,-24.2 -19.617,-43.81 -43.816,-43.81" /><path
         id="path76"
         style="fill:#406fbf;fill-opacity:1;fill-rule:nonzero;stroke:none"
         d="m 3618.29,687.988 c 0,-106.187 -86.08,-192.258 -192.26,-192.258 -106.18,0 -192.26,86.071 -192.26,192.258 0,106.184 86.08,192.25 192.26,192.25 106.18,0 192.26,-86.066 192.26,-192.25" /><path
         id="path78"
         style="fill:#6d97d6;fill-opacity:1;fill-rule:nonzero;stroke:none"
         d="m 3370.61,503.84 c -79.16,23.789 -136.84,97.23 -136.84,184.148 0,106.184 86.08,192.25 192.26,192.25 50.06,0 95.65,-19.129 129.86,-50.476 -2.76,2.519 -5.6,4.968 -8.5,7.328 -17.49,5.301 -36.13,8.109 -55.39,8.109 -106.19,0 -192.28,-86.09 -192.28,-192.277 0,-60.184 27.59,-113.793 70.89,-149.082 m 112.85,0.621 c 78.13,24.43 134.82,97.371 134.82,183.551 0,4.328 -0.14,8.629 -0.42,12.898 0.28,-4.269 0.43,-8.582 0.43,-12.922 0,-86.179 -56.7,-159.109 -134.83,-183.527" /><path
         id="path80"
         style="fill:#a3c3ea;fill-opacity:1;fill-rule:nonzero;stroke:none"
         d="m 3426,495.719 c -19.26,0 -37.89,2.812 -55.39,8.121 v 0 c 17.55,-5.281 36.15,-8.11 55.42,-8.11 20,0 39.29,3.059 57.43,8.731 -18.14,-5.68 -37.45,-8.742 -57.46,-8.742 m 191.86,205.191 c -3.38,50.922 -26.58,96.418 -61.97,128.852 35.42,-32.383 58.6,-77.91 61.97,-128.852" /><path
         id="path82"
         style="fill:#5a84cc;fill-opacity:1;fill-rule:nonzero;stroke:none"
         d="m 3426.03,495.73 c -19.27,0 -37.87,2.829 -55.42,8.11 -43.3,35.289 -70.89,88.898 -70.89,149.082 0,106.187 86.09,192.277 192.28,192.277 19.26,0 37.9,-2.808 55.39,-8.109 2.9,-2.36 5.74,-4.809 8.5,-7.328 35.39,-32.434 58.59,-77.93 61.97,-128.852 0.28,-4.269 0.42,-8.57 0.42,-12.898 0,-86.18 -56.69,-159.121 -134.82,-183.551 -18.14,-5.672 -37.43,-8.731 -57.43,-8.731" /><path
         id="path84"
         style="fill:#406fbf;fill-opacity:1;fill-rule:nonzero;stroke:none"
         d="M 3242.36,631 C 3037.02,534.371 3190.2,459.91 3479.48,563.871 3747.32,660.129 3849.15,781.57 3609.99,743.93 3622.34,692.852 3286.88,562.141 3242.36,631" /><path
         id="path86"
         style="fill:#c3c5c2;fill-opacity:1;fill-rule:nonzero;stroke:none"
         d="m 3544.99,2572.15 h -35.7 c 0.01,0.01 0.03,0.01 0.04,0.03 h 35.7 c -0.02,-0.02 -0.03,-0.02 -0.04,-0.03" /><path
         id="path88"
         style="fill:#3563b7;fill-opacity:1;fill-rule:nonzero;stroke:none"
         d="m 2831.93,1574.07 h -20.5 c 93.49,569.77 428.87,815.68 697.86,998.08 h 35.7 c -268.9,-181.7 -616.97,-421.31 -713.06,-998.08" /><path
         id="path90"
         style="fill:#406fbf;fill-opacity:1;fill-rule:nonzero;stroke:none"
         d="m 2154.25,767.809 c -169.7,-0.008 -338.09,76.621 -419.86,201.871 -50.53,77.39 -109.21,239.5 65.55,455.78 l 15.56,-12.58 c -123.63,-152.99 -146.49,-306.51 -64.37,-432.271 99.94,-153.078 335.96,-230.058 537.3,-175.281 206.28,56.133 331.52,235.572 343.61,492.282 41.35,878.07 507.85,1148.55 848.47,1346.05 211.62,122.7 364.52,211.36 330.91,398.38 -4.66,25.94 -15.01,43.87 -31.63,54.81 -43.53,28.69 -128.53,8.86 -226.94,-14.08 -193.06,-44.97 -457.46,-106.57 -614.97,161.34 l 17.24,10.14 c 150.06,-255.24 395.76,-198 593.19,-152 102.9,23.97 191.77,44.67 242.47,11.31 21.45,-14.12 34.64,-36.36 40.32,-67.99 36.09,-200.82 -130.12,-297.19 -340.56,-419.22 -336.64,-195.18 -797.68,-462.51 -838.52,-1329.67 -12.53,-265.96 -143.13,-452.078 -358.34,-510.649 -45.35,-12.34 -92.46,-18.211 -139.43,-18.222" /><path
         id="path92"
         style="fill:#5d87cd;fill-opacity:1;fill-rule:nonzero;stroke:none"
         d="m 2154.25,767.809 c -36.72,0 -73.38,3.582 -109.11,10.472 -0.84,0.168 -1.67,0.328 -2.5,0.489 -128.42,25.351 -244.59,93.39 -308.25,190.91 -1.9,2.89 -3.8,5.902 -5.7,9.039 3.89,6.621 7.72,13.281 11.47,19.961 3.42,-6.078 7.08,-12.11 10.97,-18.071 78.16,-119.718 239.57,-192.898 402.51,-192.898 45.41,0 90.91,5.68 134.79,17.617 206.28,56.133 331.52,235.572 343.61,492.282 41.35,878.07 507.85,1148.55 848.47,1346.05 191.88,111.26 335.49,194.53 335.55,348.51 0.01,15.84 -1.5,32.43 -4.64,49.87 -4.66,25.94 -15.01,43.87 -31.63,54.81 -15.43,10.17 -36.07,14.24 -60.66,14.24 -44.81,0 -102.74,-13.51 -166.28,-28.32 -79.47,-18.51 -171.06,-39.84 -262.27,-39.84 -114.02,-0.01 -227.46,33.29 -316.12,147.07 4.04,6.54 7.58,13.07 10.32,19.38 84.57,-113.5 192.85,-147.07 304.17,-147.07 87.94,0 177.76,20.93 259.36,39.94 64.38,15 123.26,28.71 170.74,28.71 28.42,0 52.75,-4.91 71.73,-17.4 21.45,-14.12 34.64,-36.36 40.32,-67.99 3.35,-18.63 4.96,-36.36 4.95,-53.3 -0.08,-165.62 -154.6,-255.21 -345.51,-365.92 -29.96,-17.36 -60.93,-35.32 -92.47,-54.2 -55.1,-32.99 -112.03,-68.85 -168.76,-109.58 -162.46,-116.63 -323.16,-273.09 -434.1,-516.01 -31.91,-69.87 -59.73,-146.97 -82.27,-232.25 -32.07,-121.42 -53.48,-259.54 -60.92,-417.63 -12.53,-265.96 -143.13,-452.078 -358.34,-510.649 -41.74,-11.359 -84.96,-17.23 -128.2,-18.109 -0.84,-0.012 -1.67,-0.031 -2.5,-0.043 -2.91,-0.051 -5.82,-0.07 -8.73,-0.07" /><path
         id="path94"
         style="fill:#406fbf;fill-opacity:1;fill-rule:nonzero;stroke:none"
         d="m 2731.63,3480.98 c 68.56,1.25 135.83,-21.34 135.83,-21.34 0,0 109.64,-187.7 123.02,-230.66 -4.61,-42.4 -76.16,-111.91 -76.16,-111.91 l -182.69,363.91" /><path
         id="path96"
         style="fill:#6d97d6;fill-opacity:1;fill-rule:nonzero;stroke:none"
         d="m 2953.63,3160.79 c -3.04,4.08 -6.23,8.19 -9.57,12.32 0.8,0.46 1.6,0.91 2.39,1.37 0.03,0.48 0.05,0.96 0.05,1.42 -0.02,9.39 -6.83,14.36 -6.83,14.36 0,0 -0.26,-0.13 -0.75,-0.39 -3.8,27.73 -21.6,77.46 -45.54,135.91 0.02,-0.02 0.04,-0.03 0.06,-0.05 -4.04,9.86 -8.25,19.93 -12.59,30.19 13.79,-7.82 27.25,-15.69 39.91,-23.58 10.28,-5.87 22.12,-16.56 34.24,-28.89 17.16,-32.36 31.21,-60.77 35.48,-74.47 -0.66,-6.07 -2.7,-12.7 -5.7,-19.6 -2.74,-6.31 -6.28,-12.84 -10.32,-19.38 -6.16,-9.97 -13.47,-19.96 -20.83,-29.21" /><path
         id="path98"
         style="fill:#406fbf;fill-opacity:1;fill-rule:nonzero;stroke:none"
         d="m 3057.45,2569.15 c -41.35,52.48 -81.97,105.94 -115.59,163.86 -8.4,14.47 -16.36,29.19 -23.89,44.15 -4.28,8.48 -8.42,17.05 -12.44,25.67 -3.51,7.52 -11.26,18.61 -12.04,26.84 -12.01,126.71 31.37,220 -10.28,321.71 l -164.71,-64.37 c 0,0 14.01,-181.22 45.99,-289.63 19.84,-67.26 64.74,-125.49 108.03,-179.37 13.54,-16.86 26.58,-34.11 40.1,-50.99 12.79,-15.98 27.11,-30.64 39.94,-46.53 19.47,-24.14 25.95,-47.17 11.15,-75.62 -0.79,-1.52 -1.62,-3.03 -2.47,-4.53 -4.2,-7.41 15.47,-15.81 27.81,-0.2 20.42,25.8 17.21,24.21 34.62,46.22 10.57,13.36 22.71,27.8 33.19,40.34 10.23,12.22 10.46,29.93 0.59,42.45" /><path
         id="path100"
         style="fill:#b8d2ef;fill-opacity:1;fill-rule:nonzero;stroke:none"
         d="m 2972.14,2431.32 c -6.41,0 -11.48,3.3 -11.48,6.93 0,0.69 0.19,1.39 0.58,2.09 0.85,1.5 1.68,3.01 2.47,4.53 5.55,10.67 8.11,20.58 8.11,30.06 0,15.82 -7.09,30.47 -19.26,45.56 -12.83,15.89 -27.15,30.55 -39.94,46.53 -13.52,16.88 -26.56,34.13 -40.1,50.99 -43.29,53.88 -88.19,112.11 -108.03,179.37 -28.18,95.52 -42.4,247.57 -45.39,282.37 1.34,-1.46 2.4,-2.44 2.4,-2.44 0,0 29.79,10.21 70.26,26.06 12.58,-21.99 55.35,-95.81 102.2,-166.1 -1.52,-19.24 -2.65,-39.11 -2.65,-59.83 -0.01,-15.42 0.62,-31.32 2.18,-47.77 0.78,-8.23 8.53,-19.32 12.04,-26.84 4.02,-8.62 8.16,-17.19 12.44,-25.67 7.53,-14.96 15.49,-29.68 23.89,-44.15 22.58,-38.9 48.31,-75.78 75.31,-111.72 -22.05,-26.65 -66.88,-61.22 -86.64,-75.23 4.3,-4.78 8.56,-9.68 12.83,-14.57 40.66,26.56 72.81,61.01 85.02,75.03 9.59,-12.55 19.31,-24.99 29.07,-37.37 4.82,-6.12 7.23,-13.46 7.25,-20.81 0,-0.86 -0.03,-1.73 -0.1,-2.59 0.59,8.18 -1.81,16.54 -7.19,23.38 l -1.16,1.45 c -6.94,-7.23 -11.83,-18.76 -12.65,-31.7 -0.66,-8.93 0.85,-17.11 3.78,-23.5 0.32,0.37 0.63,0.74 0.95,1.11 -8.21,-9.83 -16.86,-20.27 -24.66,-30.13 -17.41,-22.01 -14.2,-20.42 -34.62,-46.22 -5.12,-6.47 -11.49,-8.82 -16.91,-8.82" /><path
         id="path102"
         style="fill:#b8d2ef;fill-opacity:1;fill-rule:nonzero;stroke:none"
         d="m 3028.38,2606.52 c -3.76,4.9 -7.5,9.83 -11.21,14.77 0,0 0,0 0,0.01 3.74,-4.96 7.47,-9.92 11.23,-14.76 -0.01,-0.01 -0.02,-0.02 -0.02,-0.02" /><path
         id="path104"
         style="fill:#8db2e2;fill-opacity:1;fill-rule:nonzero;stroke:none"
         d="m 2943.36,2531.49 c -4.27,4.89 -8.53,9.79 -12.83,14.57 19.76,14.01 64.59,48.58 86.64,75.23 3.71,-4.94 7.45,-9.87 11.21,-14.77 -12.21,-14.02 -44.36,-48.47 -85.02,-75.03" /><path
         id="path106"
         style="fill:#b8d2ef;fill-opacity:1;fill-rule:nonzero;stroke:none"
         d="m 3048.33,2516.49 c 2.92,3.5 5.78,6.92 8.53,10.21 4.65,5.55 7.23,12.23 7.74,19.05 -0.49,-6.82 -3.06,-13.51 -7.73,-19.07 -2.76,-3.27 -5.57,-6.71 -8.54,-10.19" /><path
         id="path108"
         style="fill:#8db2e2;fill-opacity:1;fill-rule:nonzero;stroke:none"
         d="m 3047.38,2515.38 c -2.93,6.39 -4.44,14.57 -3.78,23.5 0.82,12.94 5.71,24.47 12.65,31.7 l 1.16,-1.45 c 5.38,-6.84 7.78,-15.2 7.19,-23.38 -0.51,-6.82 -3.09,-13.5 -7.74,-19.05 -2.75,-3.29 -5.61,-6.71 -8.53,-10.21 -0.32,-0.37 -0.63,-0.74 -0.95,-1.11" /><path
         id="path110"
         style="fill:#406fbf;fill-opacity:1;fill-rule:nonzero;stroke:none"
         d="m 2692.48,3360.96 c -17.23,-25.05 -37.54,-49.74 -63.75,-71.93 -13.02,-11.15 -27.86,-21.23 -44.17,-29.8 -8.24,-4.2 -16.88,-7.84 -25.83,-10.84 l -6.75,-2.17 -2.18,-0.68 c -1.58,-0.49 -3.17,-0.91 -4.77,-1.29 -3.02,-0.69 -6.05,-1.16 -8.73,-1.37 -10.83,-0.82 -18.67,0.72 -25.14,2.33 -12.77,3.48 -21.3,8.14 -29.37,12.64 -7.96,4.58 -14.93,9.29 -21.54,14.14 -13.02,9.91 -24.8,19.85 -35.78,30.48 -22.11,21.1 -41.7,42.99 -59.9,67.36 -8.29,11.1 -6.02,26.84 5.09,35.13 8.57,6.4 19.9,6.51 28.43,1.12 l 0.76,-0.49 c 23.6,-14.99 47.41,-30.78 70.64,-44.92 11.74,-6.93 23.2,-13.88 34.46,-19.29 5.54,-2.81 10.97,-5.36 15.87,-7.17 4.77,-1.86 9.53,-2.92 10.77,-2.68 0.52,0.04 -0.1,0.74 -3.78,0.61 -0.89,-0.04 -2.15,-0.16 -3.43,-0.44 l -2.18,-0.56 0.35,0.25 3.3,1.7 c 4.41,2.23 8.63,5.04 12.9,7.87 8.56,5.79 16.71,13.15 25.02,21.22 16.46,16.34 32.3,36.7 49.02,57.85 l 0.23,0.29 c 17.12,21.68 48.58,25.37 70.26,8.24 20.76,-16.39 24.92,-46.08 10.2,-67.6" /><path
         id="path112"
         style="fill:#b8d2ef;fill-opacity:1;fill-rule:nonzero;stroke:none"
         d="m 2530.4,3242.65 c -7.88,0 -14.01,1.26 -19.24,2.56 -12.77,3.48 -21.3,8.14 -29.37,12.64 -7.96,4.58 -14.93,9.29 -21.54,14.14 -13.02,9.91 -24.8,19.85 -35.78,30.48 -22.11,21.1 -41.7,42.99 -59.9,67.36 -1.79,2.4 -3.09,5.02 -3.91,7.73 1.53,-0.79 3.14,-1.44 4.83,-1.9 l 48.54,15.72 -2.43,4.08 0.07,-0.01 v 0 0 0 c -0.6,0.91 -1.14,1.91 -1.62,2.99 19.91,-12.79 39.88,-25.86 59.44,-37.77 11.74,-6.93 23.2,-13.88 34.46,-19.29 5.54,-2.81 10.97,-5.36 15.87,-7.17 1.48,-0.58 2.96,-1.08 4.33,-1.49 l 0.7,0.37 c 4.41,2.23 8.63,5.04 12.9,7.87 8.56,5.79 16.71,13.15 25.02,21.22 16.46,16.34 32.3,36.7 49.02,57.85 l 0.23,0.29 c 3.46,4.38 7.51,8.03 11.95,10.92 -10.73,-8.18 -16.87,-20.92 -16.86,-34.25 0,-2.88 0.29,-5.79 0.88,-8.68 6.03,-29.6 14.49,-62.35 24.72,-95.85 -1.31,-1.15 -2.64,-2.29 -3.98,-3.43 -13.02,-11.15 -27.86,-21.23 -44.17,-29.8 -8.24,-4.2 -16.88,-7.84 -25.83,-10.84 l -6.75,-2.17 -2.18,-0.68 c -1.58,-0.49 -3.17,-0.91 -4.77,-1.29 -3.02,-0.69 -6.05,-1.16 -8.73,-1.37 -2.07,-0.16 -4.03,-0.23 -5.9,-0.23 m -4.02,89.47 c 1.64,-0.41 2.98,-0.62 3.76,-0.62 0.18,0 0.33,0.01 0.45,0.03 0.1,0.01 0.16,0.04 0.16,0.09 0.01,0.17 -0.78,0.54 -3.09,0.54 -0.26,0 -0.54,0 -0.85,-0.02 -0.13,0 -0.28,-0.01 -0.43,-0.02 v 0 0" /><path
         id="path114"
         style="fill:#406fbf;fill-opacity:1;fill-rule:nonzero;stroke:none"
         d="m 2326.91,3426.32 11.72,-19.66 c 0,0 8.95,-26.16 26.86,-31 l 48.54,15.72 -2.43,4.08 0.07,-0.01 c -6.22,9.47 -5.55,27.73 -3.37,42.92 2.19,15.18 -5.69,15.73 -11.51,11.95 -3.37,-2.18 -5.74,-9.11 -8.47,-16.58 -2.39,3.29 -4.95,6.46 -7.84,9.33 l -14.83,14.78 c -6.4,6.36 -16.65,6.66 -23.4,0.65 l -12.02,-10.68 c -6.12,-5.44 -7.52,-14.46 -3.32,-21.5" /><path
         id="path116"
         style="fill:#b8d2ef;fill-opacity:1;fill-rule:nonzero;stroke:none"
         d="m 2365.49,3375.66 c -17.91,4.84 -26.86,31 -26.86,31 l -11.72,19.66 c -1.62,2.72 -2.41,5.74 -2.41,8.73 0,4.75 1.98,9.43 5.73,12.77 l 12.02,10.68 c 3.25,2.89 7.3,4.32 11.35,4.32 4.37,0 8.73,-1.67 12.05,-4.97 l 14.83,-14.78 c 2.89,-2.87 5.45,-6.04 7.84,-9.33 2.73,7.47 5.1,14.4 8.47,16.58 1.84,1.2 3.89,1.96 5.77,1.96 3.34,0 6.11,-2.43 6.12,-9.15 0,-1.4 -0.12,-2.98 -0.38,-4.76 -0.9,-6.29 -1.55,-13.11 -1.55,-19.61 -0.01,-9.19 1.27,-17.76 4.92,-23.31 l -0.07,0.01 2.43,-4.08 -48.54,-15.72" /><path
         id="path118"
         style="fill:#406fbf;fill-opacity:1;fill-rule:nonzero;stroke:none"
         d="m 2780.8,3498.23 c -46.49,-11.28 -110.36,-37.8 -153.49,-64.68 -15.29,-9.52 -22.92,-27.6 -19.32,-45.24 19.24,-94.4 63.14,-220.85 110.53,-301.29 l 221.12,91.46 c 1.52,39.01 -52.16,165.21 -106.84,287.18 -9.83,21.93 -28.64,38.24 -52,32.57" /><path
         id="path120"
         style="fill:#cfe0f5;fill-opacity:1;fill-rule:nonzero;stroke:none"
         d="m 2715.69,3091.89 c -31.49,54.82 -61.24,129.38 -82.98,200.57 -10.23,33.5 -18.69,66.25 -24.72,95.85 -0.59,2.89 -0.88,5.8 -0.88,8.68 -0.01,14.67 7.42,28.6 20.2,36.56 2.36,1.47 4.79,2.95 7.27,4.41 0.51,-0.6 1.01,-1.21 1.49,-1.79 44.47,1.15 82.21,11.48 110.05,25.44 -0.01,-0.45 -0.01,-0.91 -0.01,-1.36 0,-17.57 9.28,-34.62 25.75,-43.76 l 0.18,-0.11 64.33,-35.7 c 15.36,-20.2 38.93,-41.06 57.01,-54.9 23.94,-58.45 41.74,-108.18 45.54,-135.91 -9.55,-4.93 -108.9,-55.84 -223.23,-97.98 m -26.31,116.18 c 0.99,-0.06 1.97,-0.09 2.92,-0.09 3.29,0 6.37,0.38 9.27,1.09 0,0 97.6,36.38 127.14,49.71 -19.89,41.19 -52.29,131.13 -52.29,131.13 l -12.19,-1 c -31.48,-2.1 -100.11,-27.95 -124.5,-46.45 4.18,-32.57 28.6,-101.79 49.65,-134.39 v 0" /><path
         id="path122"
         style="fill:#5e89cf;fill-opacity:1;fill-rule:nonzero;stroke:none"
         d="m 2893.44,3325.73 c -0.02,0.02 -0.04,0.03 -0.06,0.05 -4.03,9.83 -8.22,19.89 -12.56,30.15 0.01,0 0.02,-0.01 0.03,-0.01 4.34,-10.26 8.55,-20.33 12.59,-30.19" /><path
         id="path124"
         style="fill:#9cbee7;fill-opacity:1;fill-rule:nonzero;stroke:none"
         d="m 2893.38,3325.78 c -18.08,13.84 -41.65,34.7 -57.01,54.9 l 11.3,-6.28 c 11.09,-6.11 22.22,-12.27 33.15,-18.47 4.34,-10.26 8.53,-20.32 12.56,-30.15" /><path
         id="path126"
         style="fill:#406fbf;fill-opacity:1;fill-rule:nonzero;stroke:none"
         d="m 2766.23,3597.27 c -18.25,34.81 -57.74,52.34 -105.16,48.38 -39.99,-3.34 -75.44,-44.16 -71.24,-66.22 4.2,-22.06 37.85,-31.39 43.95,-39.06 l -27.73,-20.1 c -13.8,-10.01 -16.5,-29.47 -5.96,-42.87 11.67,-14.83 27.04,-30.3 35.98,-41.23 76.64,1.99 133.32,31.22 153.75,59.35 -7.35,35.8 -5.44,67.13 -23.59,101.75" /><path
         id="path128"
         style="fill:#cfe0f5;fill-opacity:1;fill-rule:nonzero;stroke:none"
         d="m 2636.07,3436.17 c -8.94,10.93 -24.31,26.4 -35.98,41.23 -4.34,5.52 -6.44,12.07 -6.44,18.57 0.01,9.26 4.28,18.42 12.4,24.3 l 27.73,20.1 v 0 c -6.1,7.67 -39.75,17 -43.95,39.06 -0.23,1.21 -0.34,2.47 -0.34,3.78 0.03,22.63 33.78,59.29 71.58,62.44 4.4,0.37 8.74,0.55 13,0.55 41.57,0 75.61,-17.36 92.16,-48.93 15.77,-30.07 16.4,-57.67 21.11,-87.87 -14.29,-2.56 -27.36,-11.26 -34.94,-24.92 -4.04,-7.27 -6.07,-15.1 -6.28,-22.87 -27.84,-13.96 -65.58,-24.29 -110.05,-25.44" /><path
         id="path130"
         style="fill:#17282f;fill-opacity:1;fill-rule:nonzero;stroke:none"
         d="m 2728.66,3575.72 c 15.23,-38.95 -4.01,-82.88 -42.96,-98.11 -38.96,-15.22 -82.88,4.02 -98.1,42.97 -15.23,38.96 4.01,82.88 42.96,98.1 38.96,15.22 82.88,-4 98.1,-42.96" /><path
         id="path132"
         style="fill:#406fbf;fill-opacity:1;fill-rule:nonzero;stroke:none"
         d="m 3377.94,2674.51 c -1.12,32.89 -2.54,29.6 -3.49,57.65 -0.57,17.03 -0.65,35.88 -0.76,52.22 -0.11,15.95 -11.38,29.6 -27,32.77 -13.26,2.69 -26.55,5.25 -39.77,8.06 -17.26,3.68 -34.32,7.65 -51.28,12.57 -13.14,3.82 -26.16,8.03 -39.04,12.68 -13.79,4.97 -27.41,10.41 -40.89,16.19 -15.76,6.76 -31.33,13.96 -46.78,21.38 -17.26,8.28 -34.37,16.83 -51.43,25.5 -65.82,108.96 -67.23,180.74 -137.86,264.95 l -151.61,-68.57 c 0,0 111.4,-197.65 187.25,-281.45 43.67,-48.23 112.19,-69.97 173.28,-85.75 44.08,-11.38 88.78,-20.09 133.53,-28.31 17.4,-3.19 36.32,-4.43 51.28,-14.81 11.79,-8.19 17.89,-20.95 21.38,-34.52 0.71,-2.77 1.31,-5.57 1.84,-8.38 1.59,-8.38 22.03,-2.06 21.35,17.82" /><path
         id="path134"
         style="fill:#cfe0f5;fill-opacity:1;fill-rule:nonzero;stroke:none"
         d="m 3361.71,2653.08 c -2.63,0 -4.66,1.19 -5.12,3.61 -0.53,2.81 -1.13,5.61 -1.84,8.38 -3.49,13.57 -9.59,26.33 -21.38,34.52 -14.96,10.38 -33.88,11.62 -51.28,14.81 -0.58,0.11 -1.16,0.21 -1.74,0.32 17.54,47.45 20.3,97.67 20.71,111.75 -5.97,1.31 -12.03,2.65 -18.07,4.07 0.47,-34.52 -15.72,-94.17 -21.66,-112.23 4.45,-0.84 8.96,-1.71 13.44,-2.56 -42.31,7.83 -84.54,16.21 -126.21,26.96 -61.09,15.78 -129.61,37.52 -173.28,85.75 -67.65,74.74 -163.57,240.03 -183.52,274.91 46.34,18.15 106.69,43.69 152.3,69.74 66.29,-81.91 69.03,-152.95 133.44,-259.58 17.06,-8.67 34.17,-17.22 51.43,-25.5 15.45,-7.42 31.02,-14.62 46.78,-21.38 13.48,-5.78 27.1,-11.22 40.89,-16.19 12.88,-4.65 25.9,-8.86 39.04,-12.68 16.96,-4.92 34.02,-8.89 51.28,-12.57 10.21,-2.17 20.45,-4.19 30.7,-6.24 -0.15,0.03 -0.3,0.05 -0.45,0.08 0.67,-9.4 6.51,-20.31 16.28,-28.97 6.4,-5.77 13.63,-9.61 20.28,-11.42 0.1,-14.92 0.21,-31.43 0.72,-46.5 0.95,-28.05 2.37,-24.76 3.49,-57.65 0.01,-0.33 0.02,-0.66 0.02,-0.98 -0.02,-13.51 -9.9,-20.45 -16.25,-20.45 m 12.01,127.04 c -0.04,1.45 -0.05,2.86 -0.06,4.26 -0.04,6.41 -1.87,12.44 -5.06,17.57 3.2,-5.13 5.05,-11.16 5.09,-17.57 0.01,-1.4 0.02,-2.82 0.03,-4.26" /><path
         id="path136"
         style="fill:#b8d2ef;fill-opacity:1;fill-rule:nonzero;stroke:none"
         d="m 3280.35,2714.69 c -1.86,0.35 -3.72,0.71 -5.58,1.06 1.86,-0.34 3.72,-0.69 5.58,-1.03 0,-0.01 0,-0.02 0,-0.03" /><path
         id="path138"
         style="fill:#9cbee7;fill-opacity:1;fill-rule:nonzero;stroke:none"
         d="m 3280.35,2714.72 c -1.86,0.34 -3.72,0.69 -5.58,1.03 -4.48,0.85 -8.99,1.72 -13.44,2.56 5.94,18.06 22.13,77.71 21.66,112.23 6.04,-1.42 12.1,-2.76 18.07,-4.07 -0.41,-14.08 -3.17,-64.3 -20.71,-111.75" /><path
         id="path140"
         style="fill:#b8d2ef;fill-opacity:1;fill-rule:nonzero;stroke:none"
         d="m 3373.77,2778.65 c -0.02,0 -0.03,0.01 -0.04,0.01 -0.01,0.49 -0.01,0.98 -0.01,1.46 0.01,-0.48 0.03,-0.97 0.05,-1.47 m -5.17,23.3 c -4.77,7.65 -12.56,13.3 -21.91,15.2 -3.03,0.61 -6.05,1.22 -9.07,1.82 3.02,-0.53 6.11,-1.17 9.1,-1.78 9.35,-1.92 17.12,-7.58 21.88,-15.24" /><path
         id="path142"
         style="fill:#9cbee7;fill-opacity:1;fill-rule:nonzero;stroke:none"
         d="m 3373.73,2778.66 c -6.65,1.81 -13.88,5.65 -20.28,11.42 -9.77,8.66 -15.61,19.57 -16.28,28.97 0.15,-0.03 0.3,-0.05 0.45,-0.08 3.02,-0.6 6.04,-1.21 9.07,-1.82 9.35,-1.9 17.14,-7.55 21.91,-15.2 3.19,-5.13 5.02,-11.16 5.06,-17.57 0.01,-1.4 0.02,-2.81 0.06,-4.26 0,-0.48 0,-0.97 0.01,-1.46" /><path
         id="path144"
         style="fill:#ffffff;fill-opacity:1;fill-rule:nonzero;stroke:none"
         d="m 2714.51,3575.07 c 4.05,-15.16 -12.92,-31.1 -26.5,-17.98 -11.01,10.64 -27.62,28.45 -41.17,36.92 -13.91,8.71 4.64,23.88 26.51,17.99 20.41,-5.49 37.11,-21.76 41.16,-36.93" /><path
         id="path146"
         style="fill:#406fbf;fill-opacity:1;fill-rule:nonzero;stroke:none"
         d="m 2715.67,3091.88 c -7.05,-2.59 5.83,-14.57 5.83,-14.57 0,0 139.7,47.88 224.95,97.17 0.72,10.3 -6.78,15.78 -6.78,15.78 0,0 -103.72,-54.04 -224,-98.38" /><path
         id="path148"
         style="fill:#90b4e3;fill-opacity:1;fill-rule:nonzero;stroke:none"
         d="m 2721.5,3077.31 c 0,0 -7.94,7.38 -7.94,11.81 0,1.21 0.59,2.2 2.11,2.76 120.28,44.34 224,98.38 224,98.38 0,0 6.81,-4.97 6.83,-14.36 0,-0.46 -0.02,-0.94 -0.05,-1.42 -0.79,-0.46 -1.59,-0.91 -2.39,-1.37 -45.61,-26.05 -105.96,-51.59 -152.3,-69.74 -40.47,-15.85 -70.26,-26.06 -70.26,-26.06" /><path
         id="path150"
         style="fill:#406fbf;fill-opacity:1;fill-rule:nonzero;stroke:none"
         d="m 2818.66,3504.85 c 27.58,-13.92 53.54,-28.68 79.47,-45 12.91,-8.13 25.76,-16.48 38.42,-25.49 12.76,-8.82 25.35,-18.14 37.99,-28.62 l 4.74,-3.88 5.91,-5.33 c 4.2,-3.71 7.27,-7.11 10.36,-10.51 3.24,-3.51 5.92,-6.9 8.54,-10.27 2.73,-3.38 5.32,-6.76 7.65,-10.08 9.9,-13.28 17.96,-26.78 25.86,-40.19 15.37,-27.16 28.68,-54.29 39.66,-83.48 4.9,-13.03 -1.68,-27.55 -14.71,-32.45 -9.78,-3.68 -20.41,-0.88 -27.17,6.26 l -0.5,0.55 c -20.09,21.27 -39.36,43.71 -58.75,64.57 -18.97,20.8 -39.12,42.13 -55.37,51.41 -22.7,14.15 -47.98,28.22 -73.09,42.06 l -75.63,41.98 -0.18,0.11 c -24.15,13.4 -32.87,43.84 -19.46,67.99 13.06,23.54 42.42,32.36 66.26,20.37" /><path
         id="path152"
         style="fill:#cfe0f5;fill-opacity:1;fill-rule:nonzero;stroke:none"
         d="m 3024.63,3227.38 c -16.45,17.89 -32.43,36.27 -48.5,53.55 -18.97,20.8 -39.12,42.13 -55.37,51.41 -12.67,7.9 -26.14,15.77 -39.94,23.59 -10.93,6.2 -22.06,12.36 -33.15,18.47 l -11.3,6.28 -64.33,35.7 -0.18,0.11 c -16.47,9.14 -25.75,26.19 -25.75,43.76 0,8.21 2.02,16.54 6.29,24.23 9.13,16.45 26.21,25.71 43.81,25.71 7.59,0 15.27,-1.73 22.45,-5.34 27.58,-13.92 53.54,-28.68 79.47,-45 12.91,-8.13 25.76,-16.48 38.42,-25.49 12.76,-8.82 25.35,-18.14 37.99,-28.62 l 4.74,-3.88 5.91,-5.33 c 4.2,-3.71 7.27,-7.11 10.36,-10.51 3.24,-3.51 5.92,-6.9 8.54,-10.27 2.73,-3.38 5.32,-6.76 7.65,-10.08 9.9,-13.28 17.96,-26.78 25.86,-40.19 14.54,-25.69 27.23,-51.35 37.86,-78.76 -1.32,0.96 -2.73,1.78 -4.23,2.46 l -50.4,-7.93 1.76,-4.41 -0.07,0.02 v 0 c 1.22,-2.7 1.88,-5.93 2.11,-9.48" /><path
         id="path154"
         style="fill:#406fbf;fill-opacity:1;fill-rule:nonzero;stroke:none"
         d="m 3101.39,3193.09 -8.49,21.26 c 0,0 -4.74,27.24 -21.67,34.83 l -50.4,-7.93 1.76,-4.41 -0.07,0.02 c 4.66,-10.32 1.13,-28.25 -3.4,-42.91 -4.54,-14.65 3.16,-16.43 9.5,-13.61 3.66,1.63 7.09,8.1 10.96,15.06 1.84,-3.63 3.87,-7.16 6.28,-10.46 l 12.33,-16.92 c 5.32,-7.29 15.4,-9.18 23.01,-4.31 l 13.54,8.67 c 6.9,4.42 9.7,13.1 6.65,20.71" /><path
         id="path156"
         style="fill:#cfe0f5;fill-opacity:1;fill-rule:nonzero;stroke:none"
         d="m 3072,3161.01 c -5.29,0 -10.48,2.45 -13.81,7.01 l -12.33,16.92 c -2.41,3.3 -4.44,6.83 -6.28,10.46 -3.87,-6.96 -7.3,-13.43 -10.96,-15.06 -1.59,-0.71 -3.26,-1.13 -4.81,-1.13 -3.32,0 -6.05,1.94 -6.06,7.11 0,2.02 0.41,4.54 1.37,7.63 3.03,9.8 5.61,21.05 5.6,30.51 -0.01,4.71 -0.65,8.97 -2.2,12.4 l 0.07,-0.02 -1.76,4.41 50.4,7.93 c 16.93,-7.59 21.67,-34.83 21.67,-34.83 l 8.49,-21.26 c 0.83,-2.08 1.23,-4.24 1.23,-6.37 -0.02,-5.67 -2.87,-11.13 -7.88,-14.34 l -13.54,-8.67 c -2.85,-1.82 -6.04,-2.7 -9.2,-2.7" /><path
         id="path158"
         style="fill:#9cbee7;fill-opacity:1;fill-rule:nonzero;stroke:none"
         d="m 2692.3,3207.98 c -0.95,0 -1.93,0.03 -2.92,0.09 36.56,12.61 97.6,36.38 127.14,49.71 -19.89,41.19 -40.83,97.95 -52.29,131.13 v 0 l 12.19,1 c 0,0 32.4,-89.94 52.29,-131.13 -29.54,-13.33 -127.14,-49.71 -127.14,-49.71 -2.9,-0.71 -5.98,-1.09 -9.27,-1.09" /><path
         id="path160"
         style="fill:#ffffff;fill-opacity:1;fill-rule:nonzero;stroke:none"
         d="m 2639.73,3342.46 c 4.18,-32.57 28.6,-101.79 49.65,-134.39 36.56,12.61 97.6,36.38 127.14,49.71 -19.89,41.19 -40.83,97.95 -52.29,131.13 -31.48,-2.1 -100.11,-27.95 -124.5,-46.45" /><path
         id="path162"
         style="fill:#b8d2ef;fill-opacity:1;fill-rule:nonzero;stroke:none"
         d="m 2689.36,3284.95 c -2.45,0 -4.94,0.35 -7.41,1.08 -13.64,4.08 -21.39,18.46 -17.31,32.11 3.35,11.18 13.59,18.4 24.69,18.4 2.45,0 4.94,-0.35 7.41,-1.09 13.65,-4.09 21.4,-18.46 17.32,-32.1 -3.35,-11.18 -13.6,-18.4 -24.7,-18.4" /><path
         id="path164"
         style="fill:#7da6dd;fill-opacity:1;fill-rule:nonzero;stroke:none"
         d="m 2725.1,3331.77 c -0.8,0 -1.62,0.11 -2.43,0.36 -4.47,1.33 -7.01,6.04 -5.67,10.51 1.09,3.67 4.45,6.04 8.09,6.04 0.8,0 1.62,-0.12 2.43,-0.36 4.47,-1.34 7.01,-6.05 5.67,-10.52 -1.09,-3.66 -4.45,-6.03 -8.09,-6.03" /><path
         id="path166"
         style="fill:#7da6dd;fill-opacity:1;fill-rule:nonzero;stroke:none"
         d="m 2747.42,3340.46 c -0.8,0 -1.62,0.11 -2.43,0.36 -4.47,1.34 -7.02,6.04 -5.68,10.52 1.1,3.66 4.46,6.03 8.1,6.03 0.8,0 1.62,-0.12 2.42,-0.36 4.48,-1.34 7.02,-6.05 5.68,-10.52 -1.1,-3.66 -4.45,-6.03 -8.09,-6.03" /><path
         id="path168"
         style="fill:#8eb5e4;fill-opacity:1;fill-rule:nonzero;stroke:none"
         d="m 2694.5,3232.07 -5.59,18.18 92.46,36.55 5.6,-18.19 -92.47,-36.54" /><path
         id="path170"
         style="fill:#c3c5c2;fill-opacity:1;fill-rule:nonzero;stroke:none"
         d="m 2117.53,1328.78 c -25.36,0 -49.48,1.01 -72.39,3.04 v 0.03 c 22.91,-2.03 47.04,-3.04 72.38,-3.04 15.55,0 30.7,0.37 45.46,1.12 v 0 c -14.73,-0.77 -29.86,-1.15 -45.45,-1.15 m 47.95,1.28 v 0 c 0.08,0.01 0.17,0.01 0.25,0.02 -0.08,-0.01 -0.17,-0.01 -0.25,-0.02 m -122.84,1.99 c -26.94,2.48 -52.16,6.38 -75.69,11.68 23.53,-5.29 48.76,-9.18 75.69,-11.66 v -0.02 m -163.47,41.69 c -2.3,1.12 -4.59,2.27 -6.84,3.44 -0.6,0.31 -1.2,0.62 -1.8,0.94 0.59,-0.31 1.18,-0.62 1.77,-0.92 2.26,-1.18 4.55,-2.33 6.87,-3.46 m 316.55,210.7 c 3.1,2.51 6.14,5.19 9.11,8.04 24.11,23.04 42.04,59.03 53.86,107.96 -11.8,-48.95 -29.74,-84.92 -53.83,-107.96 -2.98,-2.85 -6.03,-5.53 -9.14,-8.04" /><path
         id="path172"
         style="fill:#b1b3b1;fill-opacity:1;fill-rule:nonzero;stroke:none"
         d="m 2045.14,1331.82 c -0.83,0.08 -1.67,0.15 -2.5,0.23 v 0.02 c 0.83,-0.08 1.66,-0.15 2.5,-0.22 v -0.03" /><path
         id="path174"
         style="fill:#b1b3b1;fill-opacity:1;fill-rule:nonzero;stroke:none"
         d="m 2162.98,1329.93 v 0 c 0.84,0.05 1.67,0.09 2.5,0.13 v 0 c -0.83,-0.04 -1.67,-0.09 -2.5,-0.13" /><path
         id="path176"
         style="fill:#3563b7;fill-opacity:1;fill-rule:nonzero;stroke:none"
         d="m 2117.52,1328.81 c -25.34,0 -49.47,1.01 -72.38,3.04 -0.84,0.07 -1.67,0.14 -2.5,0.22 -26.93,2.48 -52.16,6.37 -75.69,11.66 -32.5,7.33 -61.76,17.33 -87.78,30.01 -2.32,1.13 -4.61,2.28 -6.87,3.46 -0.59,0.3 -1.18,0.61 -1.77,0.92 -3.39,1.78 -6.75,3.61 -10.07,5.48 l 127.5,135.44 c 19.16,20.35 37.71,41.24 55.63,62.64 20.77,-16.61 45.16,-24.91 73.14,-24.91 29.84,0 56.19,9.23 78.99,27.67 3.11,2.51 6.16,5.19 9.14,8.04 24.09,23.04 42.03,59.01 53.83,107.96 0.39,1.6 0.77,3.21 1.14,4.84 9.2,40.2 14.8,98.1 16.8,173.5 l 192.1,128.9 -148.5,-387.2 c -39.1,-102.2 -89.8,-199.6 -151,-290.2 -1.17,-0.07 -2.33,-0.14 -3.5,-0.2 -0.08,-0.01 -0.17,-0.01 -0.25,-0.02 -0.83,-0.04 -1.66,-0.08 -2.5,-0.13 -14.76,-0.75 -29.91,-1.12 -45.46,-1.12" /><path
         id="path178"
         style="fill:#17282f;fill-opacity:1;fill-rule:nonzero;stroke:none"
         d="m 937.941,1350.9 c 55.969,-55.97 175.019,-175.02 175.019,-175.02 l 490.1,461.68 C 1434.41,1701.67 1105.64,1518.6 937.941,1350.9" /><path
         id="path180"
         style="fill:#17282f;fill-opacity:1;fill-rule:nonzero;stroke:none"
         d="m 1548.28,740.551 c -55.97,55.98 -175.02,175.019 -175.02,175.019 l 461.68,490.11 c 64.11,-168.65 -118.96,-497.418 -286.66,-665.129" /><path
         id="path182"
         style="fill:#406fbf;fill-opacity:1;fill-rule:nonzero;stroke:none"
         d="m 2218.04,1843.48 190.92,368.09 -368.09,-190.91 c -118.26,-61.34 -227.44,-138.77 -324.44,-230.08 l -627.47,-590.7 308.3,-308.31 590.7,627.47 c 91.32,97 168.75,206.19 230.08,324.44" /><path
         id="path184"
         style="fill:#9ba6a6;fill-opacity:1;fill-rule:nonzero;stroke:none"
         d="m 1397.26,891.57 v 0 l 104.25,110.74 v 0 L 1397.26,891.57" /><path
         id="path186"
         style="fill:#a4c3e9;fill-opacity:1;fill-rule:nonzero;stroke:none"
         d="m 1397.26,891.57 -284.3,284.31 -24,24 335.29,315.64 -224.55,-211.39 301.81,-301.82 -104.25,-110.74" /><path
         id="path188"
         style="fill:#a4c3e9;fill-opacity:1;fill-rule:nonzero;stroke:none"
         d="m 1527.11,1029.5 207.04,219.93 -287.34,287.34 269.62,253.81 c 97,91.31 206.18,168.74 324.44,230.08 l 368.09,190.91 -131.54,-253.61 -59.38,-114.48 c -16.38,-31.59 -33.92,-62.54 -52.56,-92.78 -0.83,-1.34 -1.67,-2.69 -2.5,-4.04 -35.86,-57.73 -75.74,-112.86 -119.39,-164.98 -17.92,-21.4 -36.47,-42.29 -55.63,-62.64 l -127.5,-135.44 -0.01,-0.01 -333.34,-354.09" /><path
         id="path190"
         style="fill:#ffffff;fill-opacity:1;fill-rule:nonzero;stroke:none"
         d="m 1917.24,1537.44 c -50.37,-50.37 -132.04,-50.37 -182.42,0 -50.37,50.37 -50.37,132.05 0,182.42 50.38,50.37 132.05,50.37 182.42,0 50.38,-50.37 50.38,-132.05 0,-182.42" /><path
         id="path192"
         style="fill:#406fbf;fill-opacity:1;fill-rule:nonzero;stroke:none"
         d="m 1884.62,1570.07 c -32.36,-32.36 -84.82,-32.36 -117.17,0 -32.36,32.35 -32.36,84.81 0,117.16 32.35,32.36 84.81,32.36 117.17,0 32.35,-32.35 32.35,-84.81 0,-117.16" /><path
         id="path194"
         style="fill:#80a8de;fill-opacity:1;fill-rule:nonzero;stroke:none"
         d="m 1501.51,1002.31 -301.81,301.82 224.55,211.39 22.56,21.25 287.34,-287.34 -207.04,-219.93 -25.6,-27.19" /><path
         id="path196"
         style="fill:#406fbf;fill-opacity:1;fill-rule:nonzero;stroke:none"
         d="M 1006.26,1074.31 C 780.211,1055.93 705.324,911.262 679.789,718.922 666.77,620.84 660.992,521.602 578.625,464.18 c -22.859,-15.942 -11.508,-51.469 16.348,-50.602 303.382,9.473 444.897,158.043 462.667,220.25 -6.12,-39.328 -15.04,-70.359 -24.92,-94.75 -10.16,-25.066 17.37,-48.269 40.29,-33.918 85.17,53.36 191.99,151.559 199.09,310.781 -62.98,88.508 -265.84,258.369 -265.84,258.369" /><path
         id="path198"
         style="fill:#5d87cd;fill-opacity:1;fill-rule:nonzero;stroke:none"
         d="m 593.973,413.57 c -17.004,0 -27.594,13.7 -27.567,27.809 0.02,8.391 3.793,16.922 12.219,22.801 82.367,57.422 88.145,156.66 101.164,254.742 25.535,192.34 100.422,337.008 326.471,355.388 0,0 202.86,-169.861 265.84,-258.369 C 1265,656.719 1158.18,558.52 1073.01,505.16 c -4.87,-3.051 -9.95,-4.398 -14.83,-4.398 -14.73,0 -27.66,12.32 -27.63,27.558 0.01,3.469 0.69,7.102 2.17,10.758 9.88,24.391 18.8,55.422 24.92,94.75 v 0 0 c -17.77,-62.207 -159.285,-210.777 -462.667,-220.25 -0.34,-0.008 -0.668,-0.008 -1,-0.008" /><path
         id="path200"
         style="fill:#406fbf;fill-opacity:1;fill-rule:nonzero;stroke:none"
         d="m 1306.82,747.48 -361.961,361.95 192.821,41.72 210.85,-210.849 -41.71,-192.821" /></g></g></svg>