<?xml version="1.0" encoding="iso-8859-1"?>
<!-- Generator: Adobe Illustrator 19.0.0, SVG Export Plug-In . SVG Version: 6.00 Build 0)  -->
<svg version="1.1" id="Layer_1" xmlns="http://www.w3.org/2000/svg" xmlns:xlink="http://www.w3.org/1999/xlink" x="0px" y="0px"
	 viewBox="0 0 512 512" style="enable-background:new 0 0 512 512;" xml:space="preserve">
<circle style="fill:#D83E20;" cx="256" cy="256" r="256"/>
<path style="fill:#C1321F;" d="M506.082,310.887L365.997,170.803l-174.93,120.823l-79.672,45.192l173.542,173.544
	C394.402,498.045,482.963,416.709,506.082,310.887z"/>
<path style="fill:#CFDBE6;" d="M253.597,337.086L253.597,337.086c5.454,3.088,12.379,1.169,15.467-4.286l28.024-49.509
	c27.865-49.23,10.547-111.73-38.683-139.595l0,0c-5.454-3.088-12.379-1.169-15.467,4.286l-28.024,49.509
	C187.047,246.722,204.366,309.22,253.597,337.086z"/>
<path style="fill:#B8C9D9;" d="M258.403,143.696L258.403,143.696c-1.136-0.643-2.336-1.057-3.551-1.279v195.272
	c5.222,2.167,11.357,0.155,14.212-4.889l28.024-49.509C324.953,234.062,307.634,171.563,258.403,143.696z"/>
<path style="fill:#CFDBE6;" d="M252.821,338.029L252.821,338.029c4.572-4.289,4.801-11.471,0.512-16.043l-38.924-41.489
	c-38.705-41.257-103.526-43.323-144.782-4.618l0,0c-4.572,4.289-4.801,11.471-0.512,16.043l38.924,41.489
	C146.746,374.667,211.566,376.734,252.821,338.029z"/>
<path style="fill:#B8C9D9;" d="M259.179,338.029L259.179,338.029c-4.572-4.289-4.801-11.471-0.512-16.043l38.924-41.489
	c38.705-41.257,103.526-43.323,144.782-4.618l0,0c4.572,4.289,4.801,11.471,0.512,16.043l-38.924,41.489
	C365.254,374.667,300.434,376.734,259.179,338.029z"/>
<path style="fill:#E6F3FF;" d="M267.348,348.517L267.348,348.517c-6.268,0-11.348-5.08-11.348-11.348v-66.844
	c0-56.57,45.859-102.429,102.429-102.429l0,0c6.268,0,11.348,5.08,11.348,11.348v66.844
	C369.778,302.658,323.918,348.517,267.348,348.517z"/>
<path style="fill:#FFFFFF;" d="M244.652,348.517L244.652,348.517c6.268,0,11.348-5.08,11.348-11.348v-66.844
	c0-56.57-45.859-102.429-102.429-102.429l0,0c-6.268,0-11.348,5.08-11.348,11.348v66.844
	C142.222,302.658,188.082,348.517,244.652,348.517z"/>
<g>
</g>
<g>
</g>
<g>
</g>
<g>
</g>
<g>
</g>
<g>
</g>
<g>
</g>
<g>
</g>
<g>
</g>
<g>
</g>
<g>
</g>
<g>
</g>
<g>
</g>
<g>
</g>
<g>
</g>
</svg>
